<svg version="1.1" id="Слой_1" xmlns="http://www.w3.org/2000/svg" x="0" y="0" viewBox="0 0 45.5 27.6" xml:space="preserve"><style>.st0{fill:#fff}.st2{fill:#bdd4de}</style><path class="st0" d="M27.1 1.2h9.8v26.4h-9.8zM0 4.9h9.4V23H0z"/><path class="st0" d="M18 18.5H0v4.1c0 2.7 2.2 4.9 4.9 4.9H18v-9zm27.5-8.7H0V5c0-2.7 2.2-5 5-5h35.5c2.8 0 5 2.2 5 5v4.8z"/><path class="st0" d="M45.5 9.8H18.9V0h22.5c2.3 0 4.1 1.8 4.1 4.1v5.7z"/><path d="M18 18.6l-8.9 8.9H18v-8.9z" fill="#ff6873"/><path class="st2" d="M36.9 18.5l-9.8 9v.1h9.6l.2-.1z"/><path class="st2" d="M36.4 27.1h.5v.5h-.5z"/></svg>